# xmcd CD database file
#
# Track frame offsets:
#	182
#	20985
#	68015
#	96735
#	132435
#	164610
#	196932
#	227607
#	260082
#
# Disc length: 3791 seconds
#
# Revision: 1
# Processed by: cddbd v1.5.1PL0 Copyright (c) Steve Scherf et al.
# Submitted via: CDex 1.51
#
DISCID=870ecd09
DTITLE=Matt Wates Sextet - Relaxin´ At The Cat
DYEAR=1993
DGENRE=Jazz
TTITLE0=Long Hot
TTITLE1=East 34th Street
TTITLE2=Stablemates
TTITLE3=Relaxin´at The Cat
TTITLE4=Rio Summit
TTITLE5=Arabesque
TTITLE6=One For J.G.
TTITLE7=Never Will I Marry
TTITLE8=The Weaver
EXTD=YEAR: 1993
EXTT0=
EXTT1=
EXTT2=
EXTT3=
EXTT4=
EXTT5=
EXTT6=
EXTT7=
EXTT8=
PLAYORDER=
